<?xml version="1.0" standalone="no"?>
<!DOCTYPE svg PUBLIC "-//W3C//DTD SVG 20010904//EN"
 "http://www.w3.org/TR/2001/REC-SVG-20010904/DTD/svg10.dtd">
<svg version="1.0" xmlns="http://www.w3.org/2000/svg"
 width="360.000000pt" height="360.000000pt" viewBox="0 0 360.000000 360.000000"
 preserveAspectRatio="xMidYMid meet">
<metadata>
Created by potrace 1.16, written by Peter Selinger 2001-2019
</metadata>
<g transform="translate(0.000000,360.000000) scale(0.100000,-0.100000)"
fill="#000000" stroke="none">
<path d="M1621 3589 c-268 -30 -552 -127 -766 -262 -613 -385 -945 -1108 -830
-1807 63 -386 239 -727 514 -1000 471 -468 1152 -636 1791 -443 184 55 390
160 545 276 105 79 297 271 372 372 158 211 270 466 323 731 28 138 38 423 20
558 -82 621 -453 1135 -1015 1406 -235 114 -454 166 -725 174 -80 3 -183 1
-229 -5z m330 -200 c632 -64 1168 -489 1368 -1084 61 -183 75 -278 75 -510 0
-179 -3 -225 -22 -311 -139 -640 -616 -1117 -1256 -1256 -86 -19 -132 -22
-311 -22 -232 -1 -321 13 -515 77 -449 148 -848 546 -999 996 -94 282 -112
545 -56 827 125 623 600 1111 1219 1251 183 41 323 50 497 32z"/>
<path d="M1494 2676 c-17 -8 -42 -29 -55 -47 l-24 -34 -3 -728 -3 -727 423 2
423 3 0 725 c0 808 4 756 -68 800 -30 19 -52 20 -347 20 -242 -1 -322 -4 -346
-14z m610 -449 c9 -15 7 -21 -8 -33 -16 -11 -66 -14 -259 -14 -234 0 -277 5
-277 33 0 35 21 37 279 35 232 -3 255 -5 265 -21z m0 -173 c16 -41 -4 -44
-274 -44 -220 0 -259 2 -264 15 -3 8 -3 22 0 30 5 13 45 15 269 15 234 0 264
-2 269 -16z m-3 -170 c9 -11 10 -20 2 -32 -9 -15 -38 -17 -268 -17 -230 0
-259 2 -268 17 -8 12 -7 21 2 32 12 14 48 16 266 16 218 0 254 -2 266 -16z
m-2 -178 c6 -7 9 -21 5 -30 -5 -14 -35 -16 -269 -16 -234 0 -264 2 -269 16
-16 41 5 44 269 44 202 0 255 -3 264 -14z m5 -182 c16 -41 -5 -44 -269 -44
-264 0 -285 3 -269 44 5 14 35 16 269 16 234 0 264 -2 269 -16z m0 -177 c9
-15 7 -21 -9 -33 -16 -12 -63 -14 -269 -12 -219 3 -250 5 -259 20 -8 12 -7 21
2 32 12 14 45 16 269 14 233 -3 256 -5 266 -21z"/>
<path d="M964 2230 c-55 -22 -54 -12 -54 -572 l0 -518 235 0 235 0 0 550 0
550 -197 -1 c-109 0 -208 -4 -219 -9z m341 -210 l0 -25 -158 -3 c-134 -2 -158
0 -163 13 -4 8 -4 22 0 30 5 13 29 15 163 13 l158 -3 0 -25z m0 -190 l0 -25
-158 -3 c-134 -2 -158 0 -163 13 -4 8 -4 22 0 30 5 13 29 15 163 13 l158 -3 0
-25z m1 -182 c12 -40 -14 -46 -168 -42 -146 5 -158 7 -158 28 0 31 25 36 171
36 143 0 148 -1 155 -22z m-12 -174 c9 -3 16 -14 16 -24 0 -36 -23 -41 -170
-38 -120 3 -144 6 -153 20 -8 12 -7 21 2 32 11 13 38 16 151 16 76 0 145 -3
154 -6z m7 -200 c9 -11 10 -20 2 -32 -9 -14 -33 -17 -153 -20 -96 -2 -147 1
-156 9 -17 14 -18 46 -1 52 6 3 76 6 153 6 118 1 144 -2 155 -15z"/>
<path d="M2290 1691 l0 -551 235 0 235 0 0 523 0 524 -26 24 c-25 24 -29 24
-235 27 l-209 3 0 -550z m395 329 l0 -25 -158 -3 c-134 -2 -158 0 -163 13 -4
8 -4 22 0 30 5 13 29 15 163 13 l158 -3 0 -25z m0 -190 l0 -25 -154 -3 c-86
-1 -159 2 -164 7 -5 5 -6 19 -2 30 6 21 11 21 163 19 l157 -3 0 -25z m3 -184
c2 -10 -1 -23 -6 -28 -13 -13 -302 -12 -315 1 -5 5 -6 19 -2 30 6 21 11 21
163 19 144 -3 157 -5 160 -22z m-14 -172 c19 -7 21 -35 4 -52 -15 -15 -271
-17 -299 -2 -22 12 -25 30 -7 48 13 13 271 18 302 6z m7 -200 c9 -11 10 -20 2
-32 -9 -15 -31 -17 -158 -17 -127 0 -149 2 -158 17 -8 12 -7 21 2 32 20 24
292 24 312 0z"/>
<path d="M785 1099 c-38 -21 -45 -41 -45 -121 l0 -78 1063 2 1062 3 0 77 c0
67 -3 80 -23 100 l-23 23 -1007 2 c-718 2 -1013 -1 -1027 -8z"/>
</g>
</svg>
